<?xml version="1.0" standalone="no"?>
<!DOCTYPE svg PUBLIC "-//W3C//DTD SVG 20010904//EN"
 "http://www.w3.org/TR/2001/REC-SVG-20010904/DTD/svg10.dtd">
<svg version="1.0" xmlns="http://www.w3.org/2000/svg"
 width="1080.000000pt" height="1080.000000pt" viewBox="0 0 1080.000000 1080.000000"
 preserveAspectRatio="xMidYMid meet">
<metadata>
Created by potrace 1.14, written by Peter Selinger 2001-2017
</metadata>
<g transform="translate(0.000000,1080.000000) scale(0.100000,-0.100000)"
fill="#000000" stroke="none">
<path d="M0 5623 c1 -3522 4 -5172 11 -5160 7 12 23 17 59 17 30 0 50 -4 50
-11 0 -6 7 -9 15 -5 8 3 15 1 15 -4 0 -6 8 -10 19 -10 10 0 24 -6 30 -13 6 -8
23 -12 41 -9 16 2 38 1 47 -4 18 -8 -23 -15 -174 -30 -34 -3 -68 -13 -74 -20
-13 -16 -33 -19 -24 -4 3 6 1 10 -4 10 -6 0 -11 -9 -11 -20 0 -23 4 -24 31
-10 24 13 25 1 3 -42 -9 -17 -14 -41 -11 -54 4 -25 -8 -33 -16 -11 -4 8 -6 7
-6 -4 -1 -8 4 -20 10 -26 8 -8 8 -13 0 -17 -7 -5 -11 -44 -11 -102 l0 -94
5400 0 5400 0 0 5061 0 5060 -57 -2 c-32 -1 -73 2 -92 6 -29 6 -37 3 -61 -24
-31 -34 -72 -34 -63 0 6 20 5 21 -67 24 -25 1 -81 5 -125 10 l-80 9 49 7 c27
4 58 17 70 28 12 12 34 21 49 21 14 0 29 5 32 10 8 13 128 13 141 0 7 -7 19
-8 38 0 15 5 58 8 96 6 l70 -4 0 193 0 194 -30 -4 c-36 -5 -37 -2 -9 26 17 17
23 19 30 8 5 -9 9 22 9 79 l0 92 -5400 0 -5400 0 0 -5177z m10760 5025 c0 -7
-11 -14 -25 -14 -15 -1 -25 3 -25 12 0 8 10 14 25 14 14 0 25 -6 25 -12z
m-575 -498 c4 -6 -6 -10 -22 -10 -22 0 -25 2 -13 10 19 12 27 12 35 0z m-8082
-1247 c29 -27 54 -51 57 -55 10 -13 74 -23 66 -10 -3 6 -2 13 4 17 6 3 13 0
16 -8 3 -10 22 -13 65 -13 92 2 223 -11 227 -23 2 -7 13 -5 28 5 23 16 24 16
24 -10 0 -16 -6 -26 -14 -26 -8 0 -16 -7 -20 -15 -3 -9 0 -15 10 -15 8 0 12
-5 9 -10 -5 -8 -11 -7 -21 1 -10 9 -17 9 -28 0 -8 -7 -42 -10 -91 -7 -43 2
-89 0 -102 -5 -16 -6 -31 -5 -44 1 -29 16 -23 -4 9 -32 47 -40 62 -71 52 -112
-7 -32 -5 -39 16 -55 l25 -19 -22 -7 c-15 -5 -26 -2 -33 7 -6 7 -30 23 -52 35
l-42 22 119 -240 119 -239 35 0 c19 0 36 0 38 1 1 0 16 -5 32 -11 49 -19 124
-28 128 -16 2 6 8 7 13 3 21 -20 -30 -36 -113 -36 -47 0 -88 -3 -91 -6 -7 -6
249 -526 284 -580 12 -18 25 -44 29 -56 4 -13 82 -172 173 -354 91 -181 174
-348 185 -370 10 -22 83 -168 160 -325 l142 -285 97 0 c56 0 100 4 102 10 3 6
14 -1 26 -14 15 -18 24 -22 29 -13 6 9 14 7 34 -8 15 -12 27 -17 27 -12 0 5
11 12 24 14 17 4 23 1 19 -9 -5 -14 12 -19 21 -5 3 5 27 8 54 8 28 -1 48 3 45
7 -3 5 3 8 13 6 11 -1 27 1 37 6 9 4 29 4 45 -1 15 -4 32 -6 39 -5 6 1 14 -3
17 -7 3 -6 25 -6 53 -1 27 5 61 7 77 3 16 -3 77 -8 135 -9 103 -3 141 -8 160
-19 5 -4 11 -2 13 2 5 14 68 23 68 10 0 -6 2 -9 5 -6 3 3 3 12 0 21 -5 12 -13
13 -38 6 -40 -11 -40 -11 -30 4 7 12 9 16 12 36 2 17 31 20 46 5 13 -14 15
-13 17 8 2 44 3 47 14 58 7 7 9 31 7 58 l-5 47 20 -30 c15 -24 17 -36 9 -60
-5 -16 -12 -45 -14 -62 -3 -18 -9 -33 -14 -33 -14 0 -11 -30 4 -31 9 0 9 -2 0
-6 -24 -9 -13 -18 22 -18 25 0 37 5 41 18 3 10 15 17 29 17 26 0 41 -15 25
-25 -5 -3 -10 -1 -10 5 0 6 -5 8 -10 5 -8 -5 -7 -11 0 -20 13 -15 40 -9 40 9
0 6 5 18 10 26 9 13 11 13 20 0 7 -11 10 -11 10 -2 0 7 5 10 10 7 6 -4 80 -6
166 -6 86 0 164 -4 173 -9 15 -8 30 14 105 162 102 200 123 230 180 257 52 26
89 26 141 2 59 -26 87 -65 176 -242 49 -98 87 -163 101 -170 13 -7 43 -9 78
-6 31 4 61 2 66 -3 6 -6 22 -6 41 -1 21 6 35 5 42 -2 7 -7 11 -7 11 -1 0 6 16
11 36 11 32 0 35 -2 29 -24 -3 -12 -1 -23 4 -23 5 0 11 9 14 20 4 15 14 20 41
20 20 0 36 -5 36 -11 0 -8 5 -7 16 2 12 9 17 10 23 1 5 -8 17 -9 37 -4 16 4
56 7 89 7 53 0 60 -2 57 -19 -2 -11 1 -17 10 -14 7 3 13 10 13 17 0 8 15 15
36 17 30 2 38 -1 42 -17 3 -10 10 -19 15 -19 6 0 8 8 6 18 -5 15 8 17 138 20
82 2 151 9 163 15 11 7 41 17 67 23 42 10 47 9 51 -8 5 -17 13 -18 110 -13
117 5 132 9 164 38 18 16 25 17 36 8 11 -9 17 -8 26 3 7 8 20 12 29 10 14 -5
14 -3 -2 10 -10 8 -15 19 -11 25 3 6 1 11 -4 11 -11 0 -13 386 -3 404 10 18 9
61 -2 68 -6 4 2 11 17 17 15 6 27 17 27 25 0 16 52 29 61 14 4 -6 11 -8 17 -4
16 10 118 18 202 16 121 -2 145 2 145 21 0 16 14 29 34 29 11 0 10 -5 -4 -20
-10 -11 -13 -20 -8 -20 18 0 65 84 226 405 85 171 282 561 437 868 155 307
280 562 278 567 -2 5 -23 0 -47 -11 -49 -22 -86 -17 -76 9 4 10 8 26 9 37 6
46 21 73 65 118 25 26 38 45 28 41 -9 -3 -23 -1 -31 5 -7 6 -16 8 -19 5 -8 -8
-147 17 -147 27 0 4 12 9 28 11 l27 4 -35 17 -35 16 30 2 c17 0 41 2 55 2 14
1 30 -4 35 -10 6 -7 32 -15 59 -18 28 -4 53 -8 57 -11 4 -2 10 0 14 5 3 6 12
8 19 5 7 -3 45 24 85 60 59 55 77 66 106 66 50 0 75 -28 75 -86 0 -40 -34
-112 -269 -577 -148 -293 -303 -602 -345 -687 -43 -85 -82 -164 -88 -174 -33
-60 -310 -608 -323 -640 l-16 -38 34 6 c19 3 45 2 58 -4 22 -10 22 -10 -8 -7
-41 4 -53 -20 -18 -33 41 -16 29 -25 -38 -28 -34 -2 -65 -6 -68 -10 -14 -15
-286 -559 -293 -585 -5 -23 -3 -29 20 -37 19 -7 31 -7 40 1 11 9 15 8 20 -5 3
-8 16 -15 27 -15 59 3 159 -11 187 -26 25 -13 30 -20 24 -38 -4 -12 -7 -30 -6
-40 0 -9 -3 -15 -9 -12 -5 4 -9 1 -9 -4 0 -6 7 -11 15 -11 8 0 15 -4 15 -10 0
-5 -5 -10 -11 -10 -6 0 -9 -7 -5 -15 3 -8 1 -15 -4 -15 -6 0 -10 7 -10 15 0 8
-4 15 -9 15 -6 0 -8 23 -5 54 6 61 4 63 -81 60 -27 0 -76 -2 -108 -2 -50 -2
-60 -5 -64 -22 -3 -11 -9 -20 -14 -20 -5 0 -6 6 -3 14 6 17 -20 28 -49 20 -18
-4 -55 -70 -169 -299 -93 -186 -143 -297 -137 -301 10 -6 69 -12 169 -17 48
-3 35 -21 -17 -23 -23 0 -49 -7 -58 -14 -8 -7 -25 -10 -37 -6 -30 7 -99 -4
-92 -15 3 -5 -2 -9 -10 -9 -16 0 -326 -604 -315 -614 3 -3 65 -6 137 -7 94 0
132 -4 132 -12 0 -8 -26 -12 -85 -11 -54 0 -85 -3 -85 -10 0 -7 -3 -7 -8 1 -4
7 -29 11 -59 10 -29 0 -50 -4 -47 -9 3 -4 0 -8 -5 -8 -6 0 -40 -59 -76 -130
-90 -180 -148 -240 -230 -240 -75 0 -145 52 -191 141 -17 34 -34 53 -58 63
-49 20 -99 98 -51 80 7 -3 15 -1 18 3 3 5 -11 10 -31 11 -20 2 -41 9 -47 16
-5 7 -47 19 -93 26 -45 7 -85 17 -88 22 -3 5 -15 6 -25 3 -16 -5 -20 -3 -17
11 2 9 -3 19 -11 22 -10 3 -12 0 -8 -12 4 -10 1 -16 -8 -16 -8 0 -15 5 -15 11
0 6 -15 10 -32 9 -48 -3 -54 -1 -57 13 -1 6 -4 133 -7 282 -3 204 -8 273 -18
283 -19 19 -110 40 -200 46 -82 5 -94 1 -110 -39 -5 -11 -10 -15 -13 -9 -5 13
-55 6 -66 -10 -4 -6 -5 1 -1 17 7 31 -14 38 -36 12 -18 -22 -30 -18 -30 9 0
13 -7 27 -16 30 -9 3 -78 6 -153 5 -75 -1 -163 -1 -196 0 -33 1 -84 -2 -113
-5 -45 -5 -55 -10 -65 -32 -6 -15 -14 -29 -17 -32 -19 -17 -209 -421 -204
-434 4 -10 1 -16 -8 -16 -7 0 -22 -16 -33 -36 -16 -30 -17 -37 -4 -44 17 -11
159 -8 159 3 0 5 4 6 9 2 6 -3 29 -8 53 -11 24 -2 52 -7 64 -9 11 -2 45 -7 75
-11 30 -3 65 -8 79 -11 14 -2 127 -6 252 -8 228 -3 272 -8 265 -28 -2 -7 -60
-11 -170 -11 -140 -1 -168 1 -173 14 -5 13 -7 13 -17 -1 -9 -12 -28 -16 -70
-16 -31 0 -60 -2 -63 -6 -3 -3 -16 -2 -28 2 -11 4 -122 4 -246 -1 -124 -4
-232 -5 -241 -2 -18 5 -34 -33 -17 -38 7 -3 7 -12 -1 -27 -7 -12 -10 -35 -6
-51 3 -15 2 -31 -4 -34 -6 -4 -8 -51 -7 -117 3 -97 6 -112 25 -130 11 -11 21
-25 21 -32 0 -7 9 -30 20 -52 24 -47 14 -65 -36 -65 -30 0 -35 4 -40 30 -4 17
-10 30 -14 30 -4 0 -18 27 -30 60 -12 33 -27 63 -31 66 -5 3 -9 14 -9 25 0 10
-4 19 -9 19 -13 0 -25 -103 -17 -158 8 -63 47 -160 66 -165 8 -2 46 0 85 4 38
4 79 5 90 3 11 -2 72 1 135 7 126 13 471 18 464 7 -2 -4 0 -9 6 -13 5 -3 10 0
10 8 0 17 106 15 184 -4 38 -9 51 -9 54 0 4 12 32 16 32 3 0 -4 19 -8 41 -8
23 -1 44 -7 48 -13 5 -8 14 -5 31 9 25 21 104 28 115 10 3 -5 29 -10 56 -10
38 0 48 -3 43 -12 -5 -8 -1 -8 10 1 15 12 21 13 38 2 17 -10 22 -10 28 0 6 9
29 10 92 5 45 -4 88 -7 93 -7 6 0 19 0 30 0 32 2 166 -9 220 -18 l50 -7 -55
-7 c-30 -4 -66 -6 -80 -6 -14 1 -42 -1 -62 -5 -27 -4 -38 -2 -38 7 0 8 -2 9
-8 1 -7 -12 -222 -25 -222 -14 0 6 -346 -7 -372 -14 -10 -2 -21 0 -24 6 -4 6
-83 7 -212 3 -437 -14 -549 -22 -556 -41 -7 -18 14 -30 24 -14 5 8 10 9 14 2
4 -6 -2 -16 -13 -21 -20 -11 -44 -67 -35 -82 3 -5 14 -9 26 -9 17 0 19 -4 14
-25 -4 -14 -2 -25 2 -25 5 0 7 -11 5 -23 -3 -14 2 -31 11 -40 9 -8 16 -25 16
-36 0 -11 8 -24 17 -30 10 -5 14 -13 10 -17 -4 -4 2 -13 14 -20 l22 -11 -21
-12 c-22 -11 -21 -37 2 -54 13 -10 -33 2 -54 14 -12 7 -12 8 3 9 10 0 15 4 12
10 -3 5 -16 10 -29 10 -12 0 -31 10 -42 23 -24 27 -84 148 -84 170 0 9 -5 19
-12 23 -8 5 -6 11 7 20 17 13 16 14 -8 23 -44 17 -41 39 5 32 4 0 5 6 2 14 -7
18 -34 20 -35 3 0 -10 -2 -10 -6 0 -11 28 -33 12 -34 -25 -1 -21 -3 -60 -5
-88 -4 -46 3 -64 72 -205 l76 -156 316 1 c242 0 316 3 320 13 2 6 10 12 18 12
9 0 12 5 9 10 -3 5 1 10 11 10 9 0 23 8 31 17 8 10 12 13 9 7 -3 -7 1 -14 9
-18 9 -3 15 0 15 9 0 17 26 20 35 5 3 -5 15 -10 26 -10 10 0 19 -4 19 -10 0
-5 -11 -10 -25 -10 -14 0 -25 -6 -25 -12 0 -9 -3 -8 -10 2 -7 12 -12 12 -29
-4 -26 -24 -26 -32 -2 -39 27 -7 71 3 71 17 0 14 66 36 77 26 26 -24 122 -39
290 -45 137 -6 180 -10 177 -20 -6 -14 -174 -16 -174 -2 0 4 -5 5 -11 1 -14
-8 -77 -15 -138 -15 -48 0 -64 -5 -55 -20 4 -6 11 -6 20 2 10 8 14 8 14 1 0
-14 -41 -37 -59 -33 -8 1 -20 9 -28 17 -17 16 -63 19 -63 4 0 -7 -6 -7 -19 0
-14 7 -31 6 -61 -5 -24 -8 -55 -15 -71 -15 -24 0 -29 4 -29 25 0 14 -5 25 -11
25 -7 0 -9 -10 -5 -25 5 -20 2 -26 -18 -31 -14 -3 -29 -3 -34 0 -4 2 -26 -1
-48 -9 l-39 -13 0 -69 c0 -37 -4 -74 -9 -82 -5 -8 -4 -16 4 -21 10 -6 12 -48
6 -194 -6 -150 -5 -186 6 -187 35 -3 64 4 74 17 13 16 64 10 64 -8 0 -7 5 -7
13 0 10 8 21 6 44 -8 22 -13 68 -22 167 -31 75 -7 136 -15 136 -18 0 -3 -28
-7 -62 -9 -36 -1 -65 -8 -70 -15 -4 -6 -8 -9 -8 -5 0 3 -24 0 -52 -8 -29 -7
-72 -14 -95 -14 -40 0 -63 -19 -25 -21 9 0 -5 -7 -33 -16 -52 -15 -80 -33 -55
-33 8 0 4 -6 -10 -13 l-25 -13 4 -161 c3 -174 -1 -193 -47 -212 -68 -28 -104
15 -234 277 l-90 182 -52 -6 c-28 -4 -67 -7 -86 -7 -66 -1 -240 8 -230 11 23
8 7 17 -30 17 -22 1 -40 -3 -40 -7 0 -5 -12 -5 -27 -2 -20 5 -25 4 -21 -7 4
-11 -4 -14 -41 -13 -66 2 -71 3 -71 14 0 6 9 10 19 10 11 0 23 5 26 10 8 13
-38 13 -51 1 -5 -6 -35 -6 -74 -1 -47 5 -69 4 -78 -4 -15 -14 -72 -9 -72 6 0
6 -12 2 -27 -8 -16 -10 -48 -21 -71 -24 -39 -6 -45 -5 -54 16 -11 24 -28 32
-28 14 0 -9 -72 -7 -119 4 -14 3 -31 0 -39 -6 -11 -10 -16 -8 -24 5 -6 12 -14
15 -26 8 -20 -10 -90 -3 -97 10 -3 4 -17 4 -31 -2 -22 -8 -25 -7 -20 6 5 13 1
15 -17 10 -16 -4 -18 -3 -7 3 8 6 204 12 438 15 232 3 426 8 431 11 5 3 108 6
229 7 121 1 225 5 231 9 8 4 -26 83 -102 236 -63 126 -126 254 -141 285 -35
74 -45 82 -85 68 -17 -6 -38 -8 -46 -5 -8 3 -26 1 -40 -4 -15 -6 -26 -6 -30 1
-4 5 -11 6 -17 3 -6 -4 -90 -8 -187 -11 -173 -3 -282 -9 -331 -17 -14 -2 -29
-5 -35 -5 -5 -1 -17 -6 -25 -11 -13 -9 -13 -11 0 -20 12 -7 12 -12 2 -22 -9
-9 -12 -9 -12 1 0 7 -9 11 -22 9 -15 -2 -40 -29 -73 -78 -53 -78 -86 -104
-120 -94 -60 18 -71 75 -30 162 14 30 22 58 19 63 -3 5 -36 9 -75 9 -38 0 -69
3 -69 8 0 4 -51 7 -112 8 -153 1 -228 11 -254 35 -24 23 -38 25 -30 4 6 -17
-9 -21 -19 -5 -3 6 -17 10 -30 10 -13 0 -27 5 -30 10 -3 6 -18 11 -33 12 -58
3 171 16 323 18 88 2 171 7 184 12 14 5 68 10 120 11 l96 2 60 120 c102 204
215 442 215 451 0 5 -80 9 -177 9 -98 0 -225 3 -283 6 -58 3 -136 3 -173 -1
-37 -3 -70 -4 -72 -1 -3 2 -15 6 -28 7 -70 10 -104 18 -116 28 -11 8 -15 8
-18 -1 -5 -15 -30 -17 -35 -3 -2 6 -23 12 -47 14 -24 2 -47 10 -52 17 -7 12
-9 11 -9 -1 0 -12 -11 -14 -56 -12 -49 4 -54 6 -42 19 17 16 269 33 524 34
172 0 257 14 302 49 29 23 32 30 31 75 -2 73 0 87 11 80 5 -3 6 -13 3 -23 -6
-15 -5 -15 10 -3 23 18 21 41 -3 41 -17 0 -20 7 -20 50 0 29 5 50 11 50 5 0 7
6 3 12 -5 7 -9 60 -9 118 -1 58 -5 113 -10 123 -5 13 -4 16 9 11 9 -3 16 -1
16 5 0 6 -12 11 -26 11 -14 0 -35 5 -47 11 -16 9 -22 9 -25 0 -2 -6 -8 -9 -13
-6 -5 4 -36 7 -70 9 -36 1 -64 8 -69 15 -6 10 -10 9 -19 -5 -7 -13 -13 -15
-18 -8 -12 16 -41 24 -45 12 -3 -8 -11 -7 -28 2 -19 10 -20 14 -8 21 8 4 32 8
54 8 21 1 86 2 144 3 58 0 151 1 208 1 90 0 102 2 97 16 -3 9 -71 149 -152
311 l-148 295 -57 5 c-32 3 -89 3 -128 0 -38 -3 -70 -2 -70 1 0 4 -9 5 -20 2
-13 -3 -20 0 -20 8 0 10 -3 10 -12 1 -19 -19 -56 -14 -63 9 -9 27 -1 34 18 15
15 -16 57 -11 57 6 0 7 16 8 40 5 22 -3 43 -1 46 5 3 5 12 7 20 4 8 -3 14 -1
14 5 0 6 5 7 10 4 6 -3 10 -1 10 5 0 6 5 8 11 5 6 -4 27 -7 47 -7 20 0 40 -5
44 -11 4 -6 10 -8 14 -4 10 10 -322 677 -337 677 -5 0 -8 4 -4 9 3 5 -65 148
-150 318 -208 412 -198 395 -214 380 -11 -10 -11 -8 -1 9 11 18 -6 56 -143
333 -86 172 -162 319 -168 327 -7 8 -19 12 -29 9 -10 -3 -27 5 -42 20 -25 25
-25 25 -43 5 -17 -19 -55 -27 -68 -14 -6 6 16 34 27 34 3 0 6 -8 6 -17 0 -14
3 -13 23 5 20 19 28 20 57 12 18 -5 36 -7 39 -5 2 3 -2 5 -10 5 -11 0 -11 2
-1 8 9 6 -25 83 -134 301 -80 161 -153 295 -161 298 -14 6 -28 2 -86 -22 -13
-6 -16 -3 -11 9 4 10 0 18 -10 22 -22 8 -35 -5 -16 -16 29 -18 0 -22 -46 -6
-35 12 -86 16 -198 16 -141 0 -191 8 -173 27 5 4 12 1 16 -6 7 -10 13 -11 30
-2 12 7 26 9 32 5 19 -11 108 -8 123 5 9 7 17 8 20 2 3 -5 0 -12 -6 -15 -7 -3
7 -3 32 0 82 10 110 11 110 1 0 -6 8 -3 18 5 16 15 55 18 67 6 3 -3 22 -2 42
3 20 4 40 6 44 3 7 -4 -327 675 -337 685 -3 3 -23 4 -45 2 -38 -2 -40 -1 -29
20 10 18 14 19 22 8 7 -11 11 -11 15 -1 2 6 10 9 15 5 7 -4 9 1 6 13 -10 34
-10 39 -9 62 1 31 44 72 76 72 17 0 44 -16 78 -47z m-248 -33 c-10 -11 -21
-18 -23 -15 -3 3 3 12 14 20 27 20 30 18 9 -5z m935 -110 c0 -5 -5 -10 -11
-10 -5 0 -7 5 -4 10 3 6 8 10 11 10 2 0 4 -4 4 -10z m-70 -16 c0 -8 -4 -12
-10 -9 -5 3 -10 0 -10 -7 0 -10 -3 -9 -9 2 -12 17 -5 30 15 30 8 0 14 -7 14
-16z m-90 -30 c0 -8 -5 -12 -10 -9 -6 4 -8 11 -5 16 9 14 15 11 15 -7z m6080
-78 c0 -11 -19 -15 -25 -6 -3 5 1 10 9 10 9 0 16 -2 16 -4z m-6220 -272 c0
-19 -16 -18 -24 2 -11 27 -7 37 9 24 8 -7 15 -19 15 -26z m99 -171 c0 -25 -1
-26 -9 -8 -12 27 -12 35 0 35 6 0 10 -12 9 -27z m126 -53 c18 -8 17 -9 -7 -9
-16 -1 -28 4 -28 9 0 12 8 12 35 0z m78 -7 c-7 -2 -21 -2 -30 0 -10 3 -4 5 12
5 17 0 24 -2 18 -5z m5672 -71 c-3 -3 -11 0 -18 7 -9 10 -8 11 6 5 10 -3 15
-9 12 -12z m502 -18 c4 4 1 11 -7 16 -8 6 -10 10 -4 10 5 0 16 -6 22 -12 10
-10 15 -10 21 1 5 7 14 10 20 7 6 -4 11 -2 11 5 0 8 4 9 13 1 7 -7 31 -10 52
-9 25 1 40 -3 43 -12 3 -10 -2 -13 -22 -9 -37 7 -143 -16 -165 -36 -10 -9 -25
-16 -32 -14 -9 2 -15 -8 -17 -25 -4 -35 -26 -30 -30 6 -2 15 -8 27 -13 27 -16
0 -3 39 20 59 23 20 23 20 52 -1 16 -12 32 -18 36 -14z m-6146 12 c8 4 9 3 5
-4 -8 -13 -86 -13 -86 -1 0 12 43 16 57 6 7 -5 18 -5 24 -1z m-476 -56 c-3 -5
-12 -10 -18 -10 -7 0 -6 4 3 10 19 12 23 12 15 0z m617 -482 c-7 -7 -12 -8
-12 -2 0 14 12 26 19 19 2 -3 -1 -11 -7 -17z m90 0 c-6 -6 -15 -8 -19 -4 -4 4
-1 11 7 16 19 12 27 3 12 -12z m2 -39 c-5 -9 1 -10 22 -4 34 9 148 10 151 1 5
-13 -10 -36 -23 -36 -8 0 -14 -4 -14 -9 0 -5 -15 -8 -32 -7 -18 2 -37 0 -43
-3 -5 -3 -32 -6 -60 -6 -48 0 -50 -2 -50 -28 1 -23 -3 -27 -27 -27 -32 0 -37
16 -8 25 32 10 23 25 -10 19 -29 -6 -44 9 -17 19 6 2 9 8 4 13 -8 8 -44 -35
-39 -48 1 -5 -4 -8 -12 -8 -8 0 -19 15 -25 33 -9 23 -14 28 -20 18 -6 -10 -10
-10 -16 -1 -4 6 -5 14 -2 17 13 12 97 26 150 24 35 -1 57 2 57 8 0 6 5 11 11
11 5 0 7 -5 3 -11z m-652 -48 c7 -6 -216 -7 -237 -1 -5 1 6 6 25 9 40 8 201 2
212 -8z m5585 -75 c-3 -7 -1 -18 5 -24 11 -11 3 -32 -13 -32 -6 0 -7 5 -3 12
5 8 2 9 -9 5 -17 -7 -23 4 -9 17 4 4 8 12 8 17 3 17 4 19 15 19 6 0 9 -6 6
-14z m-4914 -161 c-3 -9 -8 -14 -10 -11 -3 3 -2 9 2 15 9 16 15 13 8 -4z
m4847 -6 c0 -6 -4 -7 -10 -4 -5 3 -10 11 -10 16 0 6 5 7 10 4 6 -3 10 -11 10
-16z m-3910 -359 c0 -5 -5 -10 -11 -10 -5 0 -7 5 -4 10 3 6 8 10 11 10 2 0 4
-4 4 -10z m-1270 -90 c0 -5 -2 -10 -4 -10 -3 0 -8 5 -11 10 -3 6 -1 10 4 10 6
0 11 -4 11 -10z m3545 -10 c3 -5 1 -10 -4 -10 -6 0 -11 5 -11 10 0 6 2 10 4
10 3 0 8 -4 11 -10z m1255 -6 c0 -13 -3 -14 -13 -5 -9 7 -24 8 -47 1 -34 -10
-50 -6 -50 11 0 5 25 9 55 9 44 0 55 -3 55 -16z m110 6 c0 -5 -7 -10 -16 -10
-8 0 -12 5 -9 10 3 6 10 10 16 10 5 0 9 -4 9 -10z m170 0 c0 -5 -4 -10 -10
-10 -5 0 -10 5 -10 10 0 6 5 10 10 10 6 0 10 -4 10 -10z m-2280 -10 c0 -5 -7
-10 -15 -10 -8 0 -15 5 -15 10 0 6 7 10 15 10 8 0 15 -4 15 -10z m-1931 -25
c11 2 23 0 26 -5 3 -4 -12 -8 -32 -8 -21 0 -39 -4 -41 -10 -2 -6 -12 -6 -27 2
-26 12 -35 32 -10 23 8 -4 17 -2 20 3 4 7 13 7 24 0 10 -5 28 -8 40 -5z m4558
9 c-3 -3 -12 -4 -19 -1 -8 3 -5 6 6 6 11 1 17 -2 13 -5z m243 -34 c-24 -15
-36 -11 -14 4 10 8 21 12 24 10 2 -3 -2 -9 -10 -14z m88 13 c-10 -2 -28 -2
-40 0 -13 2 -5 4 17 4 22 1 32 -1 23 -4z m192 -1 c0 -5 -36 -9 -80 -10 -47 -1
-80 2 -80 8 0 6 34 10 80 10 44 0 80 -4 80 -8z m-4075 -432 c3 -5 1 -10 -4
-10 -6 0 -11 5 -11 10 0 6 2 10 4 10 3 0 8 -4 11 -10z m3265 -180 c-8 -5 -26
-9 -40 -9 -23 1 -23 2 5 9 43 11 52 11 35 0z m192 -584 c3 -15 0 -27 -8 -30
-10 -4 -14 4 -14 30 0 39 15 39 22 0z m16 -82 c24 -24 12 -33 -22 -16 -18 9
-31 22 -29 29 5 13 31 6 51 -13z m-33 -34 c14 -2 11 -4 -10 -9 -16 -4 -36 -5
-42 -3 -19 6 -6 21 15 17 9 -2 26 -4 37 -5z m-360 -30 c19 -7 19 -8 2 -15 -12
-5 -24 -2 -35 9 -13 13 -14 16 -2 15 8 0 24 -4 35 -9z m50 0 c-3 -5 -12 -10
-18 -10 -7 0 -6 4 3 10 19 12 23 12 15 0z m-4458 -96 c-3 -3 -12 -4 -19 -1 -8
3 -5 6 6 6 11 1 17 -2 13 -5z m13 -75 c0 -10 5 -21 10 -24 8 -5 7 -11 -1 -21
-17 -21 -31 -6 -24 26 3 16 2 31 -4 35 -6 3 -11 11 -11 17 0 7 6 6 15 -2 8 -7
15 -21 15 -31z m2380 -235 c0 -2 -11 -4 -25 -4 -14 0 -25 4 -25 9 0 4 11 6 25
3 14 -2 25 -6 25 -8z m-601 -156 c5 -13 7 -25 5 -27 -7 -7 -34 21 -34 35 0 22
20 16 29 -8z m-1851 -43 c-3 -3 -9 2 -12 12 -6 14 -5 15 5 6 7 -7 10 -15 7
-18z m1572 -14 c0 -6 -4 -13 -10 -16 -5 -3 -10 1 -10 9 0 9 5 16 10 16 6 0 10
-4 10 -9z m1180 -31 c0 -5 -7 -10 -16 -10 -8 0 -12 5 -9 10 3 6 10 10 16 10 5
0 9 -4 9 -10z m-263 -16 c-3 -3 -12 -4 -19 -1 -8 3 -5 6 6 6 11 1 17 -2 13 -5z
m50 0 c-3 -3 -12 -4 -19 -1 -8 3 -5 6 6 6 11 1 17 -2 13 -5z m1598 -24 c3 -6
-1 -7 -9 -4 -18 7 -21 14 -7 14 6 0 13 -4 16 -10z m55 -4 c-7 -7 -13 -7 -20 0
-6 6 -3 10 10 10 13 0 16 -4 10 -10z m-4040 -16 c0 -5 -4 -10 -10 -10 -5 0
-10 5 -10 10 0 6 5 10 10 10 6 0 10 -4 10 -10z m2692 -22 c-6 -6 -15 -8 -19
-4 -4 4 -1 11 7 16 8 5 17 7 19 4 3 -2 -1 -10 -7 -16z m-347 2 c3 -5 -3 -10
-14 -10 -12 0 -21 5 -21 10 0 6 6 10 14 10 8 0 18 -4 21 -10z m-1965 -30 c0
-5 -2 -10 -4 -10 -3 0 -8 5 -11 10 -3 6 -1 10 4 10 6 0 11 -4 11 -10z m-856
-618 c7 -12 -48 -14 -75 -3 -20 8 -17 10 23 10 26 1 49 -3 52 -7z m74 -4 c-7
-19 -35 -21 -41 -3 -5 11 0 15 19 15 16 0 24 -5 22 -12z m2012 -152 c0 -3 -4
-8 -10 -11 -5 -3 -10 -1 -10 4 0 6 5 11 10 11 6 0 10 -2 10 -4z m63 -371 c-8
-22 -22 -18 -16 5 3 11 9 17 14 15 4 -3 6 -12 2 -20z m82 -105 c3 -5 1 -10 -4
-10 -6 0 -11 5 -11 10 0 6 2 10 4 10 3 0 8 -4 11 -10z m1305 -60 c0 -6 -26
-11 -57 -11 -32 -1 -79 -2 -104 -3 -31 -1 -45 2 -42 9 5 15 203 19 203 5z
m-1757 -160 c4 -15 0 -20 -13 -20 -22 0 -34 15 -25 30 10 17 32 11 38 -10z
m414 -725 c-4 -8 -11 -15 -17 -15 -7 0 -7 6 0 21 13 23 26 19 17 -6z m-5017
-2029 c0 -3 -4 -8 -10 -11 -5 -3 -10 -1 -10 4 0 6 5 11 10 11 6 0 10 -2 10 -4z
m-20 -167 c0 -20 -21 -49 -35 -49 -8 0 -15 5 -15 10 0 6 5 10 10 10 6 0 10 9
10 20 0 11 7 20 15 20 8 0 15 -5 15 -11z"/>
<path d="M7770 6667 c-3 -3 -57 -7 -120 -8 -150 -5 -149 -4 -143 -154 3 -61 4
-130 3 -155 -1 -25 -3 -88 -4 -140 l-1 -95 39 -19 c38 -18 39 -18 50 0 30 50
275 541 276 552 0 7 -12 12 -27 12 -16 0 -37 3 -48 6 -11 3 -23 3 -25 1z
m-197 -58 c-17 -17 -36 -1 -20 16 7 8 16 10 22 4 5 -6 5 -13 -2 -20z"/>
<path d="M5508 6287 c-31 -49 -129 -249 -125 -254 2 -1 17 1 33 6 16 5 45 14
65 20 19 6 47 11 61 11 15 0 29 7 32 16 5 12 14 15 36 11 16 -4 32 -2 36 4 4
6 11 6 20 -2 19 -16 13 4 -34 101 -44 91 -69 130 -85 130 -7 0 -24 -19 -39
-43z m52 -3 c0 -2 -7 -4 -15 -4 -8 0 -15 4 -15 10 0 5 7 7 15 4 8 -4 15 -8 15
-10z m-10 -59 c0 -8 -4 -17 -10 -20 -6 -4 -10 5 -10 20 0 15 4 24 10 20 6 -3
10 -12 10 -20z"/>
<path d="M4872 6008 c6 -18 28 -21 28 -4 0 9 -7 16 -16 16 -9 0 -14 -5 -12
-12z"/>
<path d="M4830 6000 c0 -5 7 -10 16 -10 8 0 12 5 9 10 -3 6 -10 10 -16 10 -5
0 -9 -4 -9 -10z"/>
<path d="M4116 5988 c3 -5 10 -6 15 -3 13 9 11 12 -6 12 -8 0 -12 -4 -9 -9z"/>
<path d="M3540 5976 c0 -7 70 -152 155 -324 l155 -311 33 5 c17 3 53 10 79 16
28 6 77 7 120 2 79 -8 124 -10 476 -17 162 -3 247 -1 275 7 l42 12 147 290
c81 159 147 295 147 302 1 9 -4 10 -18 2 -22 -11 -74 -14 -85 -3 -11 11 -32
12 -456 17 -282 3 -409 1 -418 -7 -10 -7 -31 -7 -75 1 -96 19 -448 23 -471 6
-14 -10 -24 -11 -40 -2 -30 16 -66 18 -66 4z m300 -156 c0 -5 -2 -10 -4 -10
-3 0 -8 5 -11 10 -3 6 -1 10 4 10 6 0 11 -4 11 -10z m20 -64 c0 -8 -5 -27 -10
-42 -8 -19 -8 -30 0 -38 5 -5 9 -19 9 -30 -1 -17 -2 -18 -6 -3 -2 9 -9 17 -14
17 -6 0 -7 5 -4 10 3 6 -1 13 -9 16 -20 8 -20 28 0 59 18 28 34 33 34 11z m40
-186 c0 -5 -4 -10 -10 -10 -5 0 -10 5 -10 10 0 6 5 10 10 10 6 0 10 -4 10 -10z"/>
<path d="M6270 5958 l-25 -9 25 -19 c16 -12 27 -15 31 -8 4 7 13 7 27 -1 11
-6 29 -11 39 -11 16 1 16 2 -2 12 -11 6 -22 14 -25 18 -13 19 -46 27 -70 18z"/>
<path d="M6530 5952 c0 -7 -7 -12 -15 -12 -8 0 -15 -4 -15 -10 0 -12 -22 -9
-32 5 -4 5 -17 0 -32 -14 -13 -13 -29 -20 -36 -16 -6 4 -9 1 -8 -7 2 -7 -4
-13 -12 -14 -8 0 -22 -3 -30 -7 -33 -12 -60 -15 -66 -6 -3 5 -10 7 -15 3 -5
-3 -16 0 -24 6 -8 6 -18 9 -22 7 -5 -3 -18 8 -28 24 -19 27 -24 29 -90 29 -38
0 -86 3 -105 5 -77 12 -76 8 75 -295 77 -154 142 -280 145 -281 73 -14 130 -2
130 28 0 16 1 16 13 0 18 -24 158 -37 387 -34 l195 2 9 32 c10 32 13 33 94 47
22 3 23 1 17 -34 l-6 -38 44 -3 c25 -2 43 -1 41 3 -5 7 66 2 74 -6 5 -6 285
535 297 576 6 16 0 18 -74 18 -62 0 -81 -3 -81 -14 0 -21 -38 -27 -49 -8 -9
15 -41 17 -298 19 -158 1 -327 -1 -376 -5 -55 -5 -91 -4 -97 2 -7 7 -10 6 -10
-2z m-390 -26 c0 -3 -4 -8 -10 -11 -5 -3 -10 -1 -10 4 0 6 5 11 10 11 6 0 10
-2 10 -4z m1150 -31 c0 -8 5 -15 10 -15 14 0 12 -16 -4 -33 -8 -7 -12 -24 -9
-39 4 -21 0 -27 -20 -32 -19 -4 -24 -11 -22 -31 2 -14 -3 -32 -11 -39 -8 -8
-14 -19 -14 -25 0 -6 -4 -11 -10 -11 -5 0 -12 -16 -16 -35 -3 -19 -12 -35 -19
-35 -7 0 -15 -6 -18 -14 -3 -7 -14 -16 -25 -18 -17 -5 -19 -1 -18 29 1 22 8
38 19 44 9 6 15 14 12 20 -3 5 1 6 9 3 12 -5 16 1 16 20 0 15 7 29 15 32 8 4
12 10 9 15 -3 5 -13 5 -24 -1 -18 -9 -18 -8 -9 20 6 16 17 30 24 30 15 0 29
35 20 49 -3 6 4 15 15 21 11 6 20 16 20 23 0 17 20 37 37 37 7 0 13 -7 13 -15z
m-190 -425 c0 -5 -5 -10 -11 -10 -5 0 -7 5 -4 10 3 6 8 10 11 10 2 0 4 -4 4
-10z"/>
<path d="M7156 5642 c-2 -4 -1 -14 5 -22 7 -12 9 -10 9 8 0 23 -5 28 -14 14z"/>
<path d="M5430 5940 c12 -9 11 -10 -7 -5 -12 3 -33 3 -48 -1 -21 -5 -26 -11
-23 -33 2 -14 8 -25 14 -24 14 3 25 -124 30 -327 1 -74 3 -138 3 -141 1 -4 25
-7 54 -6 28 0 63 -4 76 -8 17 -6 22 -5 17 3 -4 7 -1 12 8 12 8 0 16 -4 18 -9
3 -10 100 -19 280 -27 106 -4 117 -3 111 12 -5 13 0 15 23 12 16 -1 32 -7 36
-13 5 -6 8 -5 8 3 0 20 -38 90 -52 95 -10 4 -9 6 1 6 12 1 11 4 -1 19 -9 9
-33 54 -53 99 -22 47 -42 80 -48 76 -6 -3 -7 -1 -3 5 3 6 -15 54 -40 106 -38
76 -50 94 -61 85 -7 -6 -13 -18 -13 -25 0 -8 -4 -14 -10 -14 -13 0 -13 3 7 45
10 22 13 39 7 44 -5 5 -85 13 -179 16 -128 5 -166 4 -155 -5z m380 -296 l-8
-49 1 56 c0 31 -3 61 -7 67 -3 5 -3 18 1 29 12 32 23 -48 13 -103z m-232 -48
c2 -18 0 -26 -7 -21 -6 3 -11 15 -11 25 0 10 -6 21 -12 24 -7 3 -4 5 7 3 14
-1 21 -11 23 -31z m317 4 c3 -5 1 -10 -4 -10 -6 0 -11 5 -11 10 0 6 2 10 4 10
3 0 8 -4 11 -10z m-345 -93 c0 -12 7 -33 16 -46 25 -36 3 -43 -34 -10 -18 16
-27 29 -21 29 6 0 9 7 5 15 -3 8 0 15 7 16 7 0 3 4 -8 9 -18 8 -17 9 8 9 22 1
27 -3 27 -22z m100 -63 c0 -8 -5 -12 -10 -9 -6 4 -8 11 -5 16 9 14 15 11 15
-7z"/>
<path d="M5167 5610 l-116 -235 82 -6 c86 -5 146 8 148 33 1 7 0 38 -1 68 -6
127 -2 170 19 170 14 0 14 2 1 10 -8 5 -12 10 -8 10 4 0 3 12 -2 26 -7 17 -7
38 0 63 5 20 6 49 1 66 -7 28 -16 12 -124 -205z"/>
<path d="M5330 5820 c0 -6 7 -10 15 -10 8 0 15 2 15 4 0 2 -7 6 -15 10 -8 3
-15 1 -15 -4z"/>
<path d="M5310 5794 c0 -14 34 -54 46 -54 29 0 8 39 -28 53 -10 3 -18 4 -18 1z"/>
<path d="M5320 5724 c0 -9 -5 -12 -11 -8 -7 4 -10 1 -7 -6 6 -20 28 -24 28 -6
0 9 5 16 11 16 5 0 7 5 4 10 -9 15 -25 12 -25 -6z"/>
<path d="M5340 5690 c0 -5 5 -10 10 -10 6 0 10 5 10 10 0 6 -4 10 -10 10 -5 0
-10 -4 -10 -10z"/>
<path d="M5310 5670 c0 -5 5 -10 11 -10 5 0 7 5 4 10 -3 6 -8 10 -11 10 -2 0
-4 -4 -4 -10z"/>
<path d="M5355 5660 c3 -5 8 -10 11 -10 2 0 4 5 4 10 0 6 -5 10 -11 10 -5 0
-7 -4 -4 -10z"/>
<path d="M5344 5606 c-7 -20 2 -46 16 -46 5 0 10 9 10 20 0 11 0 23 1 27 1 15
-21 14 -27 -1z"/>
<path d="M5350 5507 c0 -8 6 -14 14 -14 8 0 12 6 9 14 -3 7 -9 13 -14 13 -5 0
-9 -6 -9 -13z"/>
<path d="M5980 5380 c0 -5 5 -10 10 -10 6 0 10 5 10 10 0 6 -4 10 -10 10 -5 0
-10 -4 -10 -10z"/>
<path d="M7038 5294 c-2 -2 -63 -5 -136 -6 -73 -1 -132 -5 -132 -8 0 -3 -24
-5 -52 -3 -29 2 -57 4 -63 4 -5 0 -20 -3 -32 -6 -13 -4 -23 -3 -23 3 0 5 -15
8 -32 6 -18 -1 -44 -3 -57 -3 -24 -1 -24 -1 -5 -16 17 -13 10 -14 -71 -13 -49
1 -95 6 -102 11 -6 5 -20 7 -30 5 -10 -1 -24 1 -31 6 -11 7 -12 4 -5 -10 266
-535 297 -592 312 -586 9 3 20 10 24 16 6 7 7 5 4 -5 -4 -13 5 -15 61 -15 37
0 98 -2 136 -4 l69 -5 153 300 c84 165 153 307 154 315 0 12 -15 15 -69 16
-39 1 -71 0 -73 -2z"/>
<path d="M3890 5264 c5 -11 71 -146 148 -300 l140 -280 48 -10 c27 -5 67 -6
89 -2 22 4 71 4 109 1 62 -6 69 -4 63 11 -6 14 -3 15 14 5 12 -6 25 -7 29 -2
10 10 266 510 280 547 5 15 6 25 2 22 -5 -3 -34 2 -66 10 -43 11 -61 12 -71 4
-9 -8 -20 -8 -32 -2 -30 17 -98 19 -89 3 7 -11 -36 -23 -44 -12 -8 12 -69 22
-120 20 -25 -1 -57 -3 -73 -3 -17 -1 -29 -8 -33 -19 -3 -11 -12 -16 -20 -13
-8 3 -23 0 -34 -6 -15 -10 -22 -9 -37 4 -22 18 -74 28 -209 36 -100 7 -102 7
-94 -14z m751 -27 c-1 -12 -15 -9 -19 4 -3 6 1 10 8 8 6 -3 11 -8 11 -12z
m-480 -120 c-1 -4 -1 -14 -1 -23 0 -8 -4 -12 -10 -9 -13 8 -13 48 1 43 6 -2
10 -7 10 -11z m55 -153 c-5 -14 -9 -15 -19 -5 -9 9 -9 14 3 21 18 11 24 6 16
-16z m90 -34 c0 -23 -12 -17 -19 9 -3 12 0 18 7 15 6 -2 12 -13 12 -24z m-58
-34 c3 -15 1 -16 -17 -6 -12 6 -19 16 -15 21 9 15 28 5 32 -15z m128 -84 c15
-10 23 -47 13 -63 -7 -12 -9 -11 -9 1 0 8 -7 27 -14 43 -15 27 -11 34 10 19z
m-86 -12 c0 -5 -7 -10 -15 -10 -8 0 -15 5 -15 10 0 6 7 10 15 10 8 0 15 -4 15
-10z"/>
<path d="M6121 4952 c-2 -219 -1 -239 16 -259 11 -13 24 -18 31 -14 7 4 36 4
65 0 28 -3 75 -4 104 -1 l51 5 -24 45 c-15 28 -33 47 -45 49 -12 2 -18 -1 -14
-8 4 -6 13 -8 21 -5 8 3 14 -1 14 -9 0 -8 -9 -15 -19 -15 -14 0 -21 9 -26 33
-4 17 -14 43 -23 57 -9 14 -17 29 -17 33 0 4 -5 11 -11 15 -6 4 -17 18 -24 31
-12 23 -11 24 18 18 l30 -6 -66 134 c-36 74 -69 135 -72 135 -4 0 -8 -107 -9
-238z m219 -232 c0 -12 -28 -25 -36 -17 -9 9 6 27 22 27 8 0 14 -5 14 -10z"/>
<path d="M6616 4567 c45 -90 62 -117 52 -87 -3 8 2 21 10 29 10 10 11 16 3 19
-16 5 -14 29 4 36 28 10 15 23 -21 21 -19 -1 -37 2 -40 7 -3 4 1 8 8 8 9 1 7
5 -4 14 -10 7 -15 15 -13 18 3 3 -6 10 -20 16 -24 11 -23 7 21 -81z m44 -7 c0
-5 -2 -10 -4 -10 -3 0 -8 5 -11 10 -3 6 -1 10 4 10 6 0 11 -4 11 -10z"/>
<path d="M6675 4610 c4 -6 11 -8 16 -5 14 9 11 15 -7 15 -8 0 -12 -5 -9 -10z"/>
<path d="M6801 4602 c-18 -12 -25 -14 -29 -4 -4 13 -32 17 -32 4 0 -4 7 -17
15 -29 13 -19 13 -22 -1 -27 -9 -4 -18 2 -23 17 -9 21 -9 21 -16 2 -3 -11 -13
-38 -21 -60 -10 -29 -11 -41 -3 -44 8 -2 7 -6 -2 -12 -11 -7 -9 -13 8 -31 29
-28 37 -21 91 82 62 116 64 138 13 102z"/>
<path d="M4457 4573 c-4 -3 -7 -14 -7 -24 0 -22 -46 -59 -74 -59 -11 0 -40 18
-64 40 -37 35 -72 51 -72 35 0 -3 14 -34 31 -68 60 -117 71 -162 78 -310 3
-75 3 -137 0 -137 -6 0 -29 -78 -29 -97 0 -5 17 -7 39 -5 l38 4 -15 41 c-8 23
-17 87 -20 143 -6 132 16 244 67 339 20 39 40 78 44 88 6 17 -3 23 -16 10z"/>
<path d="M4000 4557 l-35 -12 0 -305 c0 -192 4 -308 10 -312 16 -12 60 -9 74
5 11 10 13 9 7 -1 -5 -9 3 -11 34 -8 37 3 45 8 64 43 32 56 46 120 46 215 0
106 -9 138 -77 276 -60 119 -61 120 -123 99z"/>
<path d="M5764 3929 c-8 -13 25 -24 37 -12 7 7 3 12 -10 16 -12 3 -24 1 -27
-4z"/>
<path d="M4289 3862 c-14 -2 -42 -56 -114 -214 -9 -20 -13 -42 -9 -49 4 -7 3
-9 -4 -5 -14 8 -27 -13 -15 -25 13 -13 -33 -109 -51 -109 -7 0 -27 -31 -45
-68 -33 -73 -37 -87 -21 -77 6 3 10 1 10 -5 0 -8 6 -8 20 0 14 8 31 8 58 0 50
-14 255 -24 324 -16 44 6 57 11 61 27 4 14 14 19 36 19 l31 0 0 127 0 126 -65
135 c-65 134 -65 134 -96 130 -17 -3 -48 -2 -68 1 -20 4 -43 5 -52 3z"/>
<path d="M4832 3828 c-21 -21 -24 -21 -33 -6 -5 10 -17 14 -29 11 -26 -7 -26
-23 1 -23 11 0 30 -5 41 -11 12 -7 18 -7 14 -1 -3 6 6 20 21 31 16 11 23 21
18 21 -6 0 -21 -10 -33 -22z"/>
<path d="M4895 3690 c-3 -5 -1 -10 4 -10 6 0 11 5 11 10 0 6 -2 10 -4 10 -3 0
-8 -4 -11 -10z"/>
<path d="M4970 3490 c0 -5 7 -10 15 -10 8 0 15 5 15 10 0 6 -7 10 -15 10 -8 0
-15 -4 -15 -10z"/>
<path d="M4680 3341 c0 -5 5 -13 10 -16 6 -3 10 -2 10 4 0 5 -4 13 -10 16 -5
3 -10 2 -10 -4z"/>
<path d="M5117 3212 c-3 -4 -44 -6 -91 -5 -67 1 -86 -2 -86 -12 0 -15 244
-520 261 -541 9 -11 15 -10 35 3 42 27 34 59 -74 283 -38 80 -72 153 -75 162
-9 25 15 38 66 36 25 -1 42 -5 36 -9 -6 -3 -4 -11 6 -19 22 -18 55 -97 55
-134 1 -27 2 -29 11 -12 7 11 10 58 7 121 -2 57 0 101 4 99 5 -3 8 0 8 5 0 12
-2 13 -80 16 -30 2 -49 1 -42 -2 14 -6 16 -33 2 -33 -6 0 -15 11 -20 25 -10
26 -16 30 -23 17z"/>
<path d="M5280 2810 c0 -5 7 -10 16 -10 8 0 12 5 9 10 -3 6 -10 10 -16 10 -5
0 -9 -4 -9 -10z"/>
<path d="M5496 2625 c-3 -8 -1 -15 4 -15 6 0 10 7 10 15 0 8 -2 15 -4 15 -2 0
-6 -7 -10 -15z"/>
<path d="M5300 2448 c26 -59 36 -65 38 -20 2 33 -2 39 -27 49 l-29 10 18 -39z"/>
<path d="M5468 2473 c7 -3 16 -2 19 1 4 3 -2 6 -13 5 -11 0 -14 -3 -6 -6z"/>
<path d="M40 462 c0 -14 11 -21 26 -15 21 8 17 23 -6 23 -11 0 -20 -4 -20 -8z"/>
<path d="M90 460 c0 -5 5 -10 10 -10 6 0 10 5 10 10 0 6 -4 10 -10 10 -5 0
-10 -4 -10 -10z"/>
<path d="M130 425 c0 -8 2 -15 4 -15 2 0 6 7 10 15 3 8 1 15 -4 15 -6 0 -10
-7 -10 -15z"/>
</g>
</svg>
